<?xml version="1.0" encoding="UTF-8" standalone="no"?>
<!DOCTYPE svg PUBLIC "-//W3C//DTD SVG 1.1//EN"
 "http://www.w3.org/Graphics/SVG/1.1/DTD/svg11.dtd">
<!-- Generated by graphviz version 2.43.0 (0)
 -->
<!-- Title: g Pages: 1 -->
<svg width="1473pt" height="692pt"
 viewBox="0.00 0.00 1472.87 692.00" xmlns="http://www.w3.org/2000/svg" xmlns:xlink="http://www.w3.org/1999/xlink">
<g id="graph0" class="graph" transform="scale(1 1) rotate(0) translate(4 688)">
<title>g</title>
<polygon fill="white" stroke="transparent" points="-4,4 -4,-688 1468.87,-688 1468.87,4 -4,4"/>
<!-- lun&#45;clone_stopped_0 (20) -->
<g id="node1" class="node">
<title>lun&#45;clone_stopped_0 (20)</title>
<ellipse fill="none" stroke="green" stroke-width="2" cx="470.44" cy="-450" rx="126.18" ry="18"/>
<text text-anchor="middle" x="470.44" y="-446.3" font-family="Times,serif" font-size="14.00" fill="orange">lun&#45;clone_stopped_0 (20)</text>
</g>
<!-- lun&#45;clone_start_0 (17) -->
<g id="node4" class="node">
<title>lun&#45;clone_start_0 (17)</title>
<ellipse fill="none" stroke="green" stroke-width="2" cx="556.44" cy="-378" rx="111.28" ry="18"/>
<text text-anchor="middle" x="556.44" y="-374.3" font-family="Times,serif" font-size="14.00" fill="orange">lun&#45;clone_start_0 (17)</text>
</g>
<!-- lun&#45;clone_stopped_0 (20)&#45;&gt;lun&#45;clone_start_0 (17) -->
<g id="edge10" class="edge">
<title>lun&#45;clone_stopped_0 (20)&#45;&gt;lun&#45;clone_start_0 (17)</title>
<path fill="none" stroke="black" stroke-dasharray="5,2" d="M491.25,-432.05C502.24,-423.11 515.89,-412.01 527.85,-402.27"/>
<polygon fill="black" stroke="black" points="530.26,-404.82 535.81,-395.79 525.84,-399.39 530.26,-404.82"/>
</g>
<!-- lun&#45;clone_stop_0 (19) -->
<g id="node2" class="node">
<title>lun&#45;clone_stop_0 (19)</title>
<ellipse fill="none" stroke="green" stroke-width="2" cx="448.44" cy="-522" rx="108.58" ry="18"/>
<text text-anchor="middle" x="448.44" y="-518.3" font-family="Times,serif" font-size="14.00" fill="orange">lun&#45;clone_stop_0 (19)</text>
</g>
<!-- lun&#45;clone_stop_0 (19)&#45;&gt;lun&#45;clone_stopped_0 (20) -->
<g id="edge3" class="edge">
<title>lun&#45;clone_stop_0 (19)&#45;&gt;lun&#45;clone_stopped_0 (20)</title>
<path fill="none" stroke="black" stroke-dasharray="5,2" d="M453.87,-503.7C456.32,-495.9 459.28,-486.51 462,-477.83"/>
<polygon fill="black" stroke="black" points="465.4,-478.69 465.06,-468.1 458.72,-476.59 465.4,-478.69"/>
</g>
<!-- lun&#45;clone_running_0 (18) -->
<g id="node3" class="node">
<title>lun&#45;clone_running_0 (18)</title>
<ellipse fill="none" stroke="green" stroke-width="2" cx="713.44" cy="-234" rx="125.38" ry="18"/>
<text text-anchor="middle" x="713.44" y="-230.3" font-family="Times,serif" font-size="14.00" fill="orange">lun&#45;clone_running_0 (18)</text>
</g>
<!-- mlun&#45;clone_start_0 (9) -->
<g id="node12" class="node">
<title>mlun&#45;clone_start_0 (9)</title>
<ellipse fill="none" stroke="green" stroke-width="2" cx="790.44" cy="-162" rx="114.28" ry="18"/>
<text text-anchor="middle" x="790.44" y="-158.3" font-family="Times,serif" font-size="14.00" fill="orange">mlun&#45;clone_start_0 (9)</text>
</g>
<!-- lun&#45;clone_running_0 (18)&#45;&gt;mlun&#45;clone_start_0 (9) -->
<g id="edge21" class="edge">
<title>lun&#45;clone_running_0 (18)&#45;&gt;mlun&#45;clone_start_0 (9)</title>
<path fill="none" stroke="black" stroke-dasharray="5,2" d="M732.07,-216.05C741.82,-207.2 753.89,-196.22 764.53,-186.55"/>
<polygon fill="black" stroke="black" points="766.92,-189.11 771.97,-179.79 762.21,-183.93 766.92,-189.11"/>
</g>
<!-- lun&#45;clone_start_0 (17)&#45;&gt;lun&#45;clone_running_0 (18) -->
<g id="edge7" class="edge">
<title>lun&#45;clone_start_0 (17)&#45;&gt;lun&#45;clone_running_0 (18)</title>
<path fill="none" stroke="black" stroke-dasharray="5,2" d="M575.06,-360.15C602.92,-334.96 655.54,-287.37 687.25,-258.68"/>
<polygon fill="black" stroke="black" points="689.76,-261.13 694.83,-251.82 685.07,-255.94 689.76,-261.13"/>
</g>
<!-- lun:1_start_0 node1 (15) -->
<g id="node6" class="node">
<title>lun:1_start_0 node1 (15)</title>
<ellipse fill="none" stroke="green" stroke-width="2" cx="339.44" cy="-306" rx="124.28" ry="18"/>
<text text-anchor="middle" x="339.44" y="-302.3" font-family="Times,serif" font-size="14.00">lun:1_start_0 node1 (15)</text>
</g>
<!-- lun&#45;clone_start_0 (17)&#45;&gt;lun:1_start_0 node1 (15) -->
<g id="edge12" class="edge">
<title>lun&#45;clone_start_0 (17)&#45;&gt;lun:1_start_0 node1 (15)</title>
<path fill="none" stroke="black" stroke-dasharray="5,2" d="M508.81,-361.64C476.08,-351.08 432.43,-337 397.63,-325.77"/>
<polygon fill="black" stroke="black" points="398.66,-322.43 388.07,-322.69 396.51,-329.09 398.66,-322.43"/>
</g>
<!-- lun:0_start_0 node0 (13) -->
<g id="node8" class="node">
<title>lun:0_start_0 node0 (13)</title>
<ellipse fill="none" stroke="green" stroke-width="2" cx="1196.44" cy="-306" rx="124.28" ry="18"/>
<text text-anchor="middle" x="1196.44" y="-302.3" font-family="Times,serif" font-size="14.00">lun:0_start_0 node0 (13)</text>
</g>
<!-- lun&#45;clone_start_0 (17)&#45;&gt;lun:0_start_0 node0 (13) -->
<g id="edge14" class="edge">
<title>lun&#45;clone_start_0 (17)&#45;&gt;lun:0_start_0 node0 (13)</title>
<path fill="none" stroke="black" stroke-dasharray="5,2" d="M645.76,-367.23C762.28,-354.49 965.88,-332.22 1090.19,-318.62"/>
<polygon fill="black" stroke="black" points="1090.92,-322.06 1100.48,-317.49 1090.16,-315.1 1090.92,-322.06"/>
</g>
<!-- lun:1_monitor_30000 node1 (16) -->
<g id="node5" class="node">
<title>lun:1_monitor_30000 node1 (16)</title>
<ellipse fill="none" stroke="green" stroke-width="2" cx="371.44" cy="-234" rx="161.37" ry="18"/>
<text text-anchor="middle" x="371.44" y="-230.3" font-family="Times,serif" font-size="14.00">lun:1_monitor_30000 node1 (16)</text>
</g>
<!-- lun:1_start_0 node1 (15)&#45;&gt;lun&#45;clone_running_0 (18) -->
<g id="edge5" class="edge">
<title>lun:1_start_0 node1 (15)&#45;&gt;lun&#45;clone_running_0 (18)</title>
<path fill="none" stroke="black" stroke-dasharray="5,2" d="M412.43,-291.34C475.02,-279.62 565.14,-262.76 630.45,-250.53"/>
<polygon fill="black" stroke="black" points="631.12,-253.97 640.3,-248.69 629.83,-247.09 631.12,-253.97"/>
</g>
<!-- lun:1_start_0 node1 (15)&#45;&gt;lun:1_monitor_30000 node1 (16) -->
<g id="edge11" class="edge">
<title>lun:1_start_0 node1 (15)&#45;&gt;lun:1_monitor_30000 node1 (16)</title>
<path fill="none" stroke="black" stroke-dasharray="5,2" d="M347.35,-287.7C350.99,-279.73 355.39,-270.1 359.43,-261.26"/>
<polygon fill="black" stroke="black" points="362.64,-262.65 363.62,-252.1 356.28,-259.74 362.64,-262.65"/>
</g>
<!-- mlun:1_start_0 node1 (7) -->
<g id="node14" class="node">
<title>mlun:1_start_0 node1 (7)</title>
<ellipse fill="none" stroke="green" stroke-width="2" cx="164.44" cy="-90" rx="126.98" ry="18"/>
<text text-anchor="middle" x="164.44" y="-86.3" font-family="Times,serif" font-size="14.00">mlun:1_start_0 node1 (7)</text>
</g>
<!-- lun:1_start_0 node1 (15)&#45;&gt;mlun:1_start_0 node1 (7) -->
<g id="edge26" class="edge">
<title>lun:1_start_0 node1 (15)&#45;&gt;mlun:1_start_0 node1 (7)</title>
<path fill="none" stroke="black" stroke-dasharray="5,2" d="M254.09,-292.78C227.74,-285.04 201.19,-272.44 183.44,-252 150.72,-214.32 145.38,-153.48 150.97,-118.38"/>
<polygon fill="black" stroke="black" points="154.45,-118.86 153.04,-108.36 147.59,-117.45 154.45,-118.86"/>
</g>
<!-- lun:1_start_0 node1 (15)&#45;&gt;mlun:1_start_0 node1 (7) -->
<g id="edge27" class="edge">
<title>lun:1_start_0 node1 (15)&#45;&gt;mlun:1_start_0 node1 (7)</title>
<path fill="none" stroke="black" stroke-dasharray="5,2" d="M266.54,-291.41C242.75,-283.58 218.18,-271.28 201.44,-252 168.72,-214.32 163.38,-153.48 163.32,-118.38"/>
<polygon fill="black" stroke="black" points="166.82,-118.4 163.45,-108.36 159.82,-118.32 166.82,-118.4"/>
</g>
<!-- lun:1_start_0 node1 (15)&#45;&gt;mlun:1_start_0 node1 (7) -->
<g id="edge28" class="edge">
<title>lun:1_start_0 node1 (15)&#45;&gt;mlun:1_start_0 node1 (7)</title>
<path fill="none" stroke="black" stroke-dasharray="5,2" d="M279.7,-290.07C258.06,-282.2 235.25,-270.22 219.44,-252 186.72,-214.32 181.38,-153.48 175.67,-118.38"/>
<polygon fill="black" stroke="black" points="179.08,-117.58 173.85,-108.36 172.19,-118.82 179.08,-117.58"/>
</g>
<!-- lun:0_monitor_30000 node0 (14) -->
<g id="node7" class="node">
<title>lun:0_monitor_30000 node0 (14)</title>
<ellipse fill="none" stroke="green" stroke-width="2" cx="1093.44" cy="-234" rx="161.37" ry="18"/>
<text text-anchor="middle" x="1093.44" y="-230.3" font-family="Times,serif" font-size="14.00">lun:0_monitor_30000 node0 (14)</text>
</g>
<!-- lun:0_start_0 node0 (13)&#45;&gt;lun&#45;clone_running_0 (18) -->
<g id="edge6" class="edge">
<title>lun:0_start_0 node0 (13)&#45;&gt;lun&#45;clone_running_0 (18)</title>
<path fill="none" stroke="black" stroke-dasharray="5,2" d="M1112.03,-292.77C1027.27,-280.48 896.92,-261.59 808.55,-248.79"/>
<polygon fill="black" stroke="black" points="808.93,-245.3 798.53,-247.33 807.92,-252.23 808.93,-245.3"/>
</g>
<!-- lun:0_start_0 node0 (13)&#45;&gt;lun:0_monitor_30000 node0 (14) -->
<g id="edge13" class="edge">
<title>lun:0_start_0 node0 (13)&#45;&gt;lun:0_monitor_30000 node0 (14)</title>
<path fill="none" stroke="black" stroke-dasharray="5,2" d="M1171.76,-288.23C1158.23,-279.04 1141.27,-267.51 1126.6,-257.54"/>
<polygon fill="black" stroke="black" points="1128.5,-254.6 1118.26,-251.87 1124.57,-260.39 1128.5,-254.6"/>
</g>
<!-- mlun:0_start_0 node0 (5) -->
<g id="node16" class="node">
<title>mlun:0_start_0 node0 (5)</title>
<ellipse fill="none" stroke="green" stroke-width="2" cx="1300.44" cy="-90" rx="126.98" ry="18"/>
<text text-anchor="middle" x="1300.44" y="-86.3" font-family="Times,serif" font-size="14.00">mlun:0_start_0 node0 (5)</text>
</g>
<!-- lun:0_start_0 node0 (13)&#45;&gt;mlun:0_start_0 node0 (5) -->
<g id="edge31" class="edge">
<title>lun:0_start_0 node0 (13)&#45;&gt;mlun:0_start_0 node0 (5)</title>
<path fill="none" stroke="black" stroke-dasharray="5,2" d="M1209.76,-288.07C1221.37,-279 1236.16,-266.67 1245.44,-252 1271.71,-210.44 1279.39,-152.33 1287,-118.49"/>
<polygon fill="black" stroke="black" points="1290.49,-118.95 1289.49,-108.4 1283.69,-117.27 1290.49,-118.95"/>
</g>
<!-- lun:0_start_0 node0 (13)&#45;&gt;mlun:0_start_0 node0 (5) -->
<g id="edge32" class="edge">
<title>lun:0_start_0 node0 (13)&#45;&gt;mlun:0_start_0 node0 (5)</title>
<path fill="none" stroke="black" stroke-dasharray="5,2" d="M1225.7,-288.3C1239.12,-279.21 1254.08,-266.79 1263.44,-252 1289.71,-210.44 1297.39,-152.33 1299.59,-118.49"/>
<polygon fill="black" stroke="black" points="1303.09,-118.57 1300.13,-108.4 1296.1,-118.2 1303.09,-118.57"/>
</g>
<!-- lun:0_start_0 node0 (13)&#45;&gt;mlun:0_start_0 node0 (5) -->
<g id="edge33" class="edge">
<title>lun:0_start_0 node0 (13)&#45;&gt;mlun:0_start_0 node0 (5)</title>
<path fill="none" stroke="black" stroke-dasharray="5,2" d="M1240.78,-288.98C1256.35,-279.84 1271.85,-267.17 1281.44,-252 1307.71,-210.44 1315.39,-152.33 1312.18,-118.49"/>
<polygon fill="black" stroke="black" points="1315.63,-117.82 1310.77,-108.4 1308.69,-118.79 1315.63,-117.82"/>
</g>
<!-- mlun&#45;clone_stopped_0 (12) -->
<g id="node9" class="node">
<title>mlun&#45;clone_stopped_0 (12)</title>
<ellipse fill="none" stroke="green" stroke-width="2" cx="537.44" cy="-594" rx="134.58" ry="18"/>
<text text-anchor="middle" x="537.44" y="-590.3" font-family="Times,serif" font-size="14.00" fill="orange">mlun&#45;clone_stopped_0 (12)</text>
</g>
<!-- mlun&#45;clone_stopped_0 (12)&#45;&gt;lun&#45;clone_stop_0 (19) -->
<g id="edge4" class="edge">
<title>mlun&#45;clone_stopped_0 (12)&#45;&gt;lun&#45;clone_stop_0 (19)</title>
<path fill="none" stroke="black" stroke-dasharray="5,2" d="M515.89,-576.05C504.41,-567.03 490.13,-555.79 477.66,-545.99"/>
<polygon fill="black" stroke="black" points="479.81,-543.22 469.78,-539.79 475.48,-548.72 479.81,-543.22"/>
</g>
<!-- mlun&#45;clone_stopped_0 (12)&#45;&gt;mlun&#45;clone_start_0 (9) -->
<g id="edge24" class="edge">
<title>mlun&#45;clone_stopped_0 (12)&#45;&gt;mlun&#45;clone_start_0 (9)</title>
<path fill="none" stroke="black" stroke-dasharray="5,2" d="M658.62,-586.08C733.57,-579.26 820.45,-565.9 847.44,-540 876.62,-511.99 866.44,-491.45 866.44,-451 866.44,-451 866.44,-451 866.44,-305 866.44,-264.55 867.39,-251.18 847.44,-216 841.13,-204.89 831.71,-194.76 822.34,-186.4"/>
<polygon fill="black" stroke="black" points="824.44,-183.59 814.54,-179.81 819.92,-188.94 824.44,-183.59"/>
</g>
<!-- mlun&#45;clone_stop_0 (11) -->
<g id="node10" class="node">
<title>mlun&#45;clone_stop_0 (11)</title>
<ellipse fill="none" stroke="green" stroke-width="2" cx="537.44" cy="-666" rx="117.78" ry="18"/>
<text text-anchor="middle" x="537.44" y="-662.3" font-family="Times,serif" font-size="14.00" fill="orange">mlun&#45;clone_stop_0 (11)</text>
</g>
<!-- mlun&#45;clone_stop_0 (11)&#45;&gt;mlun&#45;clone_stopped_0 (12) -->
<g id="edge17" class="edge">
<title>mlun&#45;clone_stop_0 (11)&#45;&gt;mlun&#45;clone_stopped_0 (12)</title>
<path fill="none" stroke="black" stroke-dasharray="5,2" d="M537.44,-647.7C537.44,-639.98 537.44,-630.71 537.44,-622.11"/>
<polygon fill="black" stroke="black" points="540.94,-622.1 537.44,-612.1 533.94,-622.1 540.94,-622.1"/>
</g>
<!-- mlun&#45;clone_running_0 (10) -->
<g id="node11" class="node">
<title>mlun&#45;clone_running_0 (10)</title>
<ellipse fill="none" stroke="green" stroke-width="2" cx="790.44" cy="-18" rx="133.78" ry="18"/>
<text text-anchor="middle" x="790.44" y="-14.3" font-family="Times,serif" font-size="14.00" fill="orange">mlun&#45;clone_running_0 (10)</text>
</g>
<!-- mlun&#45;clone_start_0 (9)&#45;&gt;mlun&#45;clone_running_0 (10) -->
<g id="edge20" class="edge">
<title>mlun&#45;clone_start_0 (9)&#45;&gt;mlun&#45;clone_running_0 (10)</title>
<path fill="none" stroke="black" stroke-dasharray="5,2" d="M790.44,-143.87C790.44,-119.67 790.44,-75.21 790.44,-46.39"/>
<polygon fill="black" stroke="black" points="793.94,-46.19 790.44,-36.19 786.94,-46.19 793.94,-46.19"/>
</g>
<!-- mlun&#45;clone_start_0 (9)&#45;&gt;mlun:1_start_0 node1 (7) -->
<g id="edge29" class="edge">
<title>mlun&#45;clone_start_0 (9)&#45;&gt;mlun:1_start_0 node1 (7)</title>
<path fill="none" stroke="black" stroke-dasharray="5,2" d="M700.08,-150.9C586.38,-138.18 391.4,-116.38 270.68,-102.88"/>
<polygon fill="black" stroke="black" points="271,-99.39 260.68,-101.76 270.23,-106.35 271,-99.39"/>
</g>
<!-- mlun&#45;clone_start_0 (9)&#45;&gt;mlun:0_start_0 node0 (5) -->
<g id="edge34" class="edge">
<title>mlun&#45;clone_start_0 (9)&#45;&gt;mlun:0_start_0 node0 (5)</title>
<path fill="none" stroke="black" stroke-dasharray="5,2" d="M873.51,-149.6C963.61,-137.23 1107.3,-117.51 1202.74,-104.41"/>
<polygon fill="black" stroke="black" points="1203.26,-107.87 1212.69,-103.04 1202.31,-100.94 1203.26,-107.87"/>
</g>
<!-- mlun:1_monitor_30000 node1 (8) -->
<g id="node13" class="node">
<title>mlun:1_monitor_30000 node1 (8)</title>
<ellipse fill="none" stroke="green" stroke-width="2" cx="164.44" cy="-18" rx="164.37" ry="18"/>
<text text-anchor="middle" x="164.44" y="-14.3" font-family="Times,serif" font-size="14.00">mlun:1_monitor_30000 node1 (8)</text>
</g>
<!-- mlun:1_start_0 node1 (7)&#45;&gt;mlun&#45;clone_running_0 (10) -->
<g id="edge18" class="edge">
<title>mlun:1_start_0 node1 (7)&#45;&gt;mlun&#45;clone_running_0 (10)</title>
<path fill="none" stroke="black" stroke-dasharray="5,2" d="M260.53,-78.25C373.93,-65.57 562.05,-44.54 680.97,-31.24"/>
<polygon fill="black" stroke="black" points="681.63,-34.69 691.18,-30.1 680.86,-27.73 681.63,-34.69"/>
</g>
<!-- mlun:1_start_0 node1 (7)&#45;&gt;mlun:1_monitor_30000 node1 (8) -->
<g id="edge25" class="edge">
<title>mlun:1_start_0 node1 (7)&#45;&gt;mlun:1_monitor_30000 node1 (8)</title>
<path fill="none" stroke="black" stroke-dasharray="5,2" d="M164.44,-71.7C164.44,-63.98 164.44,-54.71 164.44,-46.11"/>
<polygon fill="black" stroke="black" points="167.94,-46.1 164.44,-36.1 160.94,-46.1 167.94,-46.1"/>
</g>
<!-- mlun:0_monitor_30000 node0 (6) -->
<g id="node15" class="node">
<title>mlun:0_monitor_30000 node0 (6)</title>
<ellipse fill="none" stroke="green" stroke-width="2" cx="1300.44" cy="-18" rx="164.37" ry="18"/>
<text text-anchor="middle" x="1300.44" y="-14.3" font-family="Times,serif" font-size="14.00">mlun:0_monitor_30000 node0 (6)</text>
</g>
<!-- mlun:0_start_0 node0 (5)&#45;&gt;mlun&#45;clone_running_0 (10) -->
<g id="edge19" class="edge">
<title>mlun:0_start_0 node0 (5)&#45;&gt;mlun&#45;clone_running_0 (10)</title>
<path fill="none" stroke="black" stroke-dasharray="5,2" d="M1212.76,-76.97C1123.18,-64.67 984.28,-45.61 890.46,-32.73"/>
<polygon fill="black" stroke="black" points="890.77,-29.24 880.39,-31.35 889.82,-36.17 890.77,-29.24"/>
</g>
<!-- mlun:0_start_0 node0 (5)&#45;&gt;mlun:0_monitor_30000 node0 (6) -->
<g id="edge30" class="edge">
<title>mlun:0_start_0 node0 (5)&#45;&gt;mlun:0_monitor_30000 node0 (6)</title>
<path fill="none" stroke="black" stroke-dasharray="5,2" d="M1300.44,-71.7C1300.44,-63.98 1300.44,-54.71 1300.44,-46.11"/>
<polygon fill="black" stroke="black" points="1303.94,-46.1 1300.44,-36.1 1296.94,-46.1 1303.94,-46.1"/>
</g>
<!-- lun:1_monitor_0 node1 (4) -->
<g id="node17" class="node">
<title>lun:1_monitor_0 node1 (4)</title>
<ellipse fill="none" stroke="green" stroke-width="2" cx="706.44" cy="-522" rx="131.88" ry="18"/>
<text text-anchor="middle" x="706.44" y="-518.3" font-family="Times,serif" font-size="14.00">lun:1_monitor_0 node1 (4)</text>
</g>
<!-- lun:1_monitor_0 node1 (4)&#45;&gt;lun&#45;clone_stopped_0 (20) -->
<g id="edge1" class="edge">
<title>lun:1_monitor_0 node1 (4)&#45;&gt;lun&#45;clone_stopped_0 (20)</title>
<path fill="none" stroke="black" stroke-dasharray="5,2" d="M654.06,-505.46C618.16,-494.82 570.37,-480.64 532.55,-469.42"/>
<polygon fill="black" stroke="black" points="533.25,-465.98 522.67,-466.49 531.26,-472.69 533.25,-465.98"/>
</g>
<!-- lun:1_monitor_0 node1 (4)&#45;&gt;lun&#45;clone_start_0 (17) -->
<g id="edge8" class="edge">
<title>lun:1_monitor_0 node1 (4)&#45;&gt;lun&#45;clone_start_0 (17)</title>
<path fill="none" stroke="black" stroke-dasharray="5,2" d="M688.64,-504.15C662.14,-479.07 612.18,-431.77 581.84,-403.05"/>
<polygon fill="black" stroke="black" points="583.88,-400.16 574.21,-395.82 579.06,-405.24 583.88,-400.16"/>
</g>
<!-- mlun:1_monitor_0 node1 (3) -->
<g id="node18" class="node">
<title>mlun:1_monitor_0 node1 (3)</title>
<ellipse fill="none" stroke="green" stroke-width="2" cx="859.44" cy="-666" rx="141.07" ry="18"/>
<text text-anchor="middle" x="859.44" y="-662.3" font-family="Times,serif" font-size="14.00">mlun:1_monitor_0 node1 (3)</text>
</g>
<!-- mlun:1_monitor_0 node1 (3)&#45;&gt;mlun&#45;clone_stopped_0 (12) -->
<g id="edge15" class="edge">
<title>mlun:1_monitor_0 node1 (3)&#45;&gt;mlun&#45;clone_stopped_0 (12)</title>
<path fill="none" stroke="black" stroke-dasharray="5,2" d="M791.15,-650.15C739.44,-638.91 668.39,-623.47 614.63,-611.78"/>
<polygon fill="black" stroke="black" points="615.31,-608.35 604.8,-609.64 613.82,-615.19 615.31,-608.35"/>
</g>
<!-- mlun:1_monitor_0 node1 (3)&#45;&gt;mlun&#45;clone_start_0 (9) -->
<g id="edge22" class="edge">
<title>mlun:1_monitor_0 node1 (3)&#45;&gt;mlun&#45;clone_start_0 (9)</title>
<path fill="none" stroke="black" stroke-dasharray="5,2" d="M868.76,-647.63C881.94,-621.41 904.44,-569.81 904.44,-523 904.44,-523 904.44,-523 904.44,-305 904.44,-262.33 895.24,-249.2 868.44,-216 858.49,-203.68 844.93,-193.11 831.91,-184.72"/>
<polygon fill="black" stroke="black" points="833.38,-181.52 823.03,-179.27 829.72,-187.48 833.38,-181.52"/>
</g>
<!-- lun:0_monitor_0 node0 (2) -->
<g id="node19" class="node">
<title>lun:0_monitor_0 node0 (2)</title>
<ellipse fill="none" stroke="green" stroke-width="2" cx="190.44" cy="-522" rx="131.88" ry="18"/>
<text text-anchor="middle" x="190.44" y="-518.3" font-family="Times,serif" font-size="14.00">lun:0_monitor_0 node0 (2)</text>
</g>
<!-- lun:0_monitor_0 node0 (2)&#45;&gt;lun&#45;clone_stopped_0 (20) -->
<g id="edge2" class="edge">
<title>lun:0_monitor_0 node0 (2)&#45;&gt;lun&#45;clone_stopped_0 (20)</title>
<path fill="none" stroke="black" stroke-dasharray="5,2" d="M250.85,-505.9C294.88,-494.89 354.65,-479.95 400.71,-468.43"/>
<polygon fill="black" stroke="black" points="401.76,-471.78 410.61,-465.96 400.06,-464.99 401.76,-471.78"/>
</g>
<!-- lun:0_monitor_0 node0 (2)&#45;&gt;lun&#45;clone_start_0 (17) -->
<g id="edge9" class="edge">
<title>lun:0_monitor_0 node0 (2)&#45;&gt;lun&#45;clone_start_0 (17)</title>
<path fill="none" stroke="black" stroke-dasharray="5,2" d="M212.83,-504.13C240.33,-484.17 289.05,-451.23 335.44,-432 378.37,-414.2 428.59,-401.56 470.3,-393.1"/>
<polygon fill="black" stroke="black" points="471.03,-396.52 480.16,-391.14 469.67,-389.66 471.03,-396.52"/>
</g>
<!-- mlun:0_monitor_0 node0 (1) -->
<g id="node20" class="node">
<title>mlun:0_monitor_0 node0 (1)</title>
<ellipse fill="none" stroke="green" stroke-width="2" cx="190.44" cy="-666" rx="141.07" ry="18"/>
<text text-anchor="middle" x="190.44" y="-662.3" font-family="Times,serif" font-size="14.00">mlun:0_monitor_0 node0 (1)</text>
</g>
<!-- mlun:0_monitor_0 node0 (1)&#45;&gt;mlun&#45;clone_stopped_0 (12) -->
<g id="edge16" class="edge">
<title>mlun:0_monitor_0 node0 (1)&#45;&gt;mlun&#45;clone_stopped_0 (12)</title>
<path fill="none" stroke="black" stroke-dasharray="5,2" d="M262.33,-650.5C318.91,-639.08 397.75,-623.18 456.53,-611.32"/>
<polygon fill="black" stroke="black" points="457.41,-614.71 466.52,-609.31 456.03,-607.85 457.41,-614.71"/>
</g>
<!-- mlun:0_monitor_0 node0 (1)&#45;&gt;mlun&#45;clone_start_0 (9) -->
<g id="edge23" class="edge">
<title>mlun:0_monitor_0 node0 (1)&#45;&gt;mlun&#45;clone_start_0 (9)</title>
<path fill="none" stroke="black" stroke-dasharray="5,2" d="M156.02,-648.4C103.02,-620.52 11.32,-561.65 49.44,-504 162.13,-333.58 303.37,-438.72 472.44,-324 486.41,-314.52 564.76,-224.37 579.44,-216 614.3,-196.13 656.57,-183.62 694.1,-175.79"/>
<polygon fill="black" stroke="black" points="694.92,-179.19 704.04,-173.8 693.54,-172.33 694.92,-179.19"/>
</g>
</g>
</svg>
