<?xml version="1.0" encoding="UTF-8" standalone="no"?>
<!DOCTYPE svg PUBLIC "-//W3C//DTD SVG 1.1//EN"
 "http://www.w3.org/Graphics/SVG/1.1/DTD/svg11.dtd">
<!-- Generated by graphviz version 2.43.0 (0)
 -->
<!-- Title: g Pages: 1 -->
<svg width="1721pt" height="476pt"
 viewBox="0.00 0.00 1720.62 476.00" xmlns="http://www.w3.org/2000/svg" xmlns:xlink="http://www.w3.org/1999/xlink">
<g id="graph0" class="graph" transform="scale(1 1) rotate(0) translate(4 472)">
<title>g</title>
<polygon fill="white" stroke="transparent" points="-4,4 -4,-472 1716.62,-472 1716.62,4 -4,4"/>
<!-- lun&#45;clone_stopped_0 (20) -->
<g id="node1" class="node">
<title>lun&#45;clone_stopped_0 (20)</title>
<ellipse fill="none" stroke="blue" stroke-dasharray="5,2" cx="631.19" cy="-306" rx="126.18" ry="18"/>
<text text-anchor="middle" x="631.19" y="-302.3" font-family="Times,serif" font-size="14.00" fill="orange">lun&#45;clone_stopped_0 (20)</text>
</g>
<!-- lun&#45;clone_start_0 (17) -->
<g id="node4" class="node">
<title>lun&#45;clone_start_0 (17)</title>
<ellipse fill="none" stroke="red" stroke-dasharray="5,2" cx="631.19" cy="-234" rx="111.28" ry="18"/>
<text text-anchor="middle" x="631.19" y="-230.3" font-family="Times,serif" font-size="14.00" fill="orange">lun&#45;clone_start_0 (17)</text>
</g>
<!-- lun&#45;clone_stopped_0 (20)&#45;&gt;lun&#45;clone_start_0 (17) -->
<g id="edge10" class="edge">
<title>lun&#45;clone_stopped_0 (20)&#45;&gt;lun&#45;clone_start_0 (17)</title>
<path fill="none" stroke="black" stroke-dasharray="5,2" d="M631.19,-287.7C631.19,-279.98 631.19,-270.71 631.19,-262.11"/>
<polygon fill="black" stroke="black" points="634.69,-262.1 631.19,-252.1 627.69,-262.1 634.69,-262.1"/>
</g>
<!-- lun&#45;clone_stop_0 (19) -->
<g id="node2" class="node">
<title>lun&#45;clone_stop_0 (19)</title>
<ellipse fill="none" stroke="blue" stroke-dasharray="5,2" cx="668.19" cy="-378" rx="108.58" ry="18"/>
<text text-anchor="middle" x="668.19" y="-374.3" font-family="Times,serif" font-size="14.00" fill="orange">lun&#45;clone_stop_0 (19)</text>
</g>
<!-- lun&#45;clone_stop_0 (19)&#45;&gt;lun&#45;clone_stopped_0 (20) -->
<g id="edge3" class="edge">
<title>lun&#45;clone_stop_0 (19)&#45;&gt;lun&#45;clone_stopped_0 (20)</title>
<path fill="none" stroke="black" stroke-dasharray="5,2" d="M659.23,-360.05C654.97,-352.01 649.79,-342.2 645.05,-333.23"/>
<polygon fill="black" stroke="black" points="648.08,-331.48 640.32,-324.28 641.9,-334.75 648.08,-331.48"/>
</g>
<!-- lun&#45;clone_running_0 (18) -->
<g id="node3" class="node">
<title>lun&#45;clone_running_0 (18)</title>
<ellipse fill="none" stroke="red" stroke-dasharray="5,2" cx="466.19" cy="-90" rx="125.38" ry="18"/>
<text text-anchor="middle" x="466.19" y="-86.3" font-family="Times,serif" font-size="14.00" fill="orange">lun&#45;clone_running_0 (18)</text>
</g>
<!-- lun&#45;clone_start_0 (17)&#45;&gt;lun&#45;clone_running_0 (18) -->
<g id="edge7" class="edge">
<title>lun&#45;clone_start_0 (17)&#45;&gt;lun&#45;clone_running_0 (18)</title>
<path fill="none" stroke="black" stroke-dasharray="5,2" d="M599.45,-216.75C582.25,-207.2 561.11,-194.23 544.19,-180 521.55,-160.97 499.71,-135.2 484.92,-116.28"/>
<polygon fill="black" stroke="black" points="487.52,-113.92 478.65,-108.13 481.97,-118.19 487.52,-113.92"/>
</g>
<!-- lun:1_start_0 node1 (15) -->
<g id="node6" class="node">
<title>lun:1_start_0 node1 (15)</title>
<ellipse fill="none" stroke="red" stroke-dasharray="5,2" cx="373.19" cy="-162" rx="124.28" ry="18"/>
<text text-anchor="middle" x="373.19" y="-158.3" font-family="Times,serif" font-size="14.00">lun:1_start_0 node1 (15)</text>
</g>
<!-- lun&#45;clone_start_0 (17)&#45;&gt;lun:1_start_0 node1 (15) -->
<g id="edge12" class="edge">
<title>lun&#45;clone_start_0 (17)&#45;&gt;lun:1_start_0 node1 (15)</title>
<path fill="none" stroke="black" stroke-dasharray="5,2" d="M576.79,-218.24C536.46,-207.3 481.32,-192.34 438.59,-180.75"/>
<polygon fill="black" stroke="black" points="439.41,-177.34 428.85,-178.1 437.58,-184.1 439.41,-177.34"/>
</g>
<!-- lun:0_start_0 node0 (13) -->
<g id="node8" class="node">
<title>lun:0_start_0 node0 (13)</title>
<ellipse fill="none" stroke="red" stroke-dasharray="5,2" cx="677.19" cy="-162" rx="124.28" ry="18"/>
<text text-anchor="middle" x="677.19" y="-158.3" font-family="Times,serif" font-size="14.00">lun:0_start_0 node0 (13)</text>
</g>
<!-- lun&#45;clone_start_0 (17)&#45;&gt;lun:0_start_0 node0 (13) -->
<g id="edge14" class="edge">
<title>lun&#45;clone_start_0 (17)&#45;&gt;lun:0_start_0 node0 (13)</title>
<path fill="none" stroke="black" stroke-dasharray="5,2" d="M642.32,-216.05C647.72,-207.84 654.32,-197.79 660.32,-188.66"/>
<polygon fill="black" stroke="black" points="663.27,-190.55 665.83,-180.28 657.42,-186.71 663.27,-190.55"/>
</g>
<!-- mlun&#45;clone_start_0 (9) -->
<g id="node12" class="node">
<title>mlun&#45;clone_start_0 (9)</title>
<ellipse fill="none" stroke="red" stroke-dasharray="5,2" cx="1123.19" cy="-162" rx="114.28" ry="18"/>
<text text-anchor="middle" x="1123.19" y="-158.3" font-family="Times,serif" font-size="14.00" fill="orange">mlun&#45;clone_start_0 (9)</text>
</g>
<!-- lun&#45;clone_start_0 (17)&#45;&gt;mlun&#45;clone_start_0 (9) -->
<g id="edge24" class="edge">
<title>lun&#45;clone_start_0 (17)&#45;&gt;mlun&#45;clone_start_0 (9)</title>
<path fill="none" stroke="black" stroke-dasharray="5,2" d="M711.6,-221.56C799.32,-209.08 939.45,-189.14 1031.4,-176.06"/>
<polygon fill="black" stroke="black" points="1032.13,-179.49 1041.53,-174.62 1031.14,-172.56 1032.13,-179.49"/>
</g>
<!-- lun:1_monitor_30000 node1 (16) -->
<g id="node5" class="node">
<title>lun:1_monitor_30000 node1 (16)</title>
<ellipse fill="none" stroke="red" stroke-dasharray="5,2" cx="161.19" cy="-90" rx="161.37" ry="18"/>
<text text-anchor="middle" x="161.19" y="-86.3" font-family="Times,serif" font-size="14.00">lun:1_monitor_30000 node1 (16)</text>
</g>
<!-- lun:1_start_0 node1 (15)&#45;&gt;lun&#45;clone_running_0 (18) -->
<g id="edge5" class="edge">
<title>lun:1_start_0 node1 (15)&#45;&gt;lun&#45;clone_running_0 (18)</title>
<path fill="none" stroke="black" stroke-dasharray="5,2" d="M395.7,-144.05C407.69,-135.03 422.62,-123.79 435.65,-113.99"/>
<polygon fill="black" stroke="black" points="438,-116.6 443.88,-107.79 433.79,-111.01 438,-116.6"/>
</g>
<!-- lun:1_start_0 node1 (15)&#45;&gt;lun:1_monitor_30000 node1 (16) -->
<g id="edge11" class="edge">
<title>lun:1_start_0 node1 (15)&#45;&gt;lun:1_monitor_30000 node1 (16)</title>
<path fill="none" stroke="black" stroke-dasharray="5,2" d="M325.61,-145.29C294.39,-134.98 253.33,-121.42 220.05,-110.44"/>
<polygon fill="black" stroke="black" points="221.04,-107.08 210.44,-107.26 218.84,-113.72 221.04,-107.08"/>
</g>
<!-- lun:0_monitor_30000 node0 (14) -->
<g id="node7" class="node">
<title>lun:0_monitor_30000 node0 (14)</title>
<ellipse fill="none" stroke="red" stroke-dasharray="5,2" cx="771.19" cy="-90" rx="161.37" ry="18"/>
<text text-anchor="middle" x="771.19" y="-86.3" font-family="Times,serif" font-size="14.00">lun:0_monitor_30000 node0 (14)</text>
</g>
<!-- lun:0_start_0 node0 (13)&#45;&gt;lun&#45;clone_running_0 (18) -->
<g id="edge6" class="edge">
<title>lun:0_start_0 node0 (13)&#45;&gt;lun&#45;clone_running_0 (18)</title>
<path fill="none" stroke="black" stroke-dasharray="5,2" d="M629.83,-145.29C598.32,-134.83 556.73,-121.04 523.37,-109.97"/>
<polygon fill="black" stroke="black" points="524.34,-106.6 513.74,-106.78 522.13,-113.25 524.34,-106.6"/>
</g>
<!-- lun:0_start_0 node0 (13)&#45;&gt;lun:0_monitor_30000 node0 (14) -->
<g id="edge13" class="edge">
<title>lun:0_start_0 node0 (13)&#45;&gt;lun:0_monitor_30000 node0 (14)</title>
<path fill="none" stroke="black" stroke-dasharray="5,2" d="M699.94,-144.05C711.97,-135.09 726.93,-123.96 740.03,-114.2"/>
<polygon fill="black" stroke="black" points="742.38,-116.81 748.31,-108.03 738.2,-111.2 742.38,-116.81"/>
</g>
<!-- mlun&#45;clone_stopped_0 (12) -->
<g id="node9" class="node">
<title>mlun&#45;clone_stopped_0 (12)</title>
<ellipse fill="none" stroke="blue" stroke-dasharray="5,2" cx="1123.19" cy="-234" rx="134.58" ry="18"/>
<text text-anchor="middle" x="1123.19" y="-230.3" font-family="Times,serif" font-size="14.00" fill="orange">mlun&#45;clone_stopped_0 (12)</text>
</g>
<!-- mlun&#45;clone_stopped_0 (12)&#45;&gt;mlun&#45;clone_start_0 (9) -->
<g id="edge23" class="edge">
<title>mlun&#45;clone_stopped_0 (12)&#45;&gt;mlun&#45;clone_start_0 (9)</title>
<path fill="none" stroke="black" stroke-dasharray="5,2" d="M1123.19,-215.7C1123.19,-207.98 1123.19,-198.71 1123.19,-190.11"/>
<polygon fill="black" stroke="black" points="1126.69,-190.1 1123.19,-180.1 1119.69,-190.1 1126.69,-190.1"/>
</g>
<!-- mlun&#45;clone_stop_0 (11) -->
<g id="node10" class="node">
<title>mlun&#45;clone_stop_0 (11)</title>
<ellipse fill="none" stroke="blue" stroke-dasharray="5,2" cx="895.19" cy="-450" rx="117.78" ry="18"/>
<text text-anchor="middle" x="895.19" y="-446.3" font-family="Times,serif" font-size="14.00" fill="orange">mlun&#45;clone_stop_0 (11)</text>
</g>
<!-- mlun&#45;clone_stop_0 (11)&#45;&gt;lun&#45;clone_stop_0 (19) -->
<g id="edge4" class="edge">
<title>mlun&#45;clone_stop_0 (11)&#45;&gt;lun&#45;clone_stop_0 (19)</title>
<path fill="none" stroke="black" stroke-dasharray="5,2" d="M845.37,-433.64C810.39,-422.85 763.47,-408.38 726.7,-397.04"/>
<polygon fill="black" stroke="black" points="727.69,-393.69 717.11,-394.09 725.63,-400.38 727.69,-393.69"/>
</g>
<!-- mlun&#45;clone_stop_0 (11)&#45;&gt;mlun&#45;clone_stopped_0 (12) -->
<g id="edge17" class="edge">
<title>mlun&#45;clone_stop_0 (11)&#45;&gt;mlun&#45;clone_stopped_0 (12)</title>
<path fill="none" stroke="black" stroke-dasharray="5,2" d="M978.75,-437.21C1009.22,-429.53 1042.28,-416.87 1067.19,-396 1107.17,-362.49 1118.64,-298.8 1121.91,-262.38"/>
<polygon fill="black" stroke="black" points="1125.43,-262.24 1122.68,-252.01 1118.45,-261.72 1125.43,-262.24"/>
</g>
<!-- mlun&#45;clone_running_0 (10) -->
<g id="node11" class="node">
<title>mlun&#45;clone_running_0 (10)</title>
<ellipse fill="none" stroke="red" stroke-dasharray="5,2" cx="1232.19" cy="-18" rx="133.78" ry="18"/>
<text text-anchor="middle" x="1232.19" y="-14.3" font-family="Times,serif" font-size="14.00" fill="orange">mlun&#45;clone_running_0 (10)</text>
</g>
<!-- mlun&#45;clone_start_0 (9)&#45;&gt;mlun&#45;clone_running_0 (10) -->
<g id="edge20" class="edge">
<title>mlun&#45;clone_start_0 (9)&#45;&gt;mlun&#45;clone_running_0 (10)</title>
<path fill="none" stroke="black" stroke-dasharray="5,2" d="M1165.31,-145.2C1182.6,-136.68 1201.31,-124.48 1213.19,-108 1226.14,-90.02 1230.6,-65.03 1231.99,-46.1"/>
<polygon fill="black" stroke="black" points="1235.49,-46.19 1232.49,-36.03 1228.5,-45.85 1235.49,-46.19"/>
</g>
<!-- mlun:1_start_0 node1 (7) -->
<g id="node14" class="node">
<title>mlun:1_start_0 node1 (7)</title>
<ellipse fill="none" stroke="red" stroke-dasharray="5,2" cx="1077.19" cy="-90" rx="126.98" ry="18"/>
<text text-anchor="middle" x="1077.19" y="-86.3" font-family="Times,serif" font-size="14.00">mlun:1_start_0 node1 (7)</text>
</g>
<!-- mlun&#45;clone_start_0 (9)&#45;&gt;mlun:1_start_0 node1 (7) -->
<g id="edge26" class="edge">
<title>mlun&#45;clone_start_0 (9)&#45;&gt;mlun:1_start_0 node1 (7)</title>
<path fill="none" stroke="black" stroke-dasharray="5,2" d="M1112.05,-144.05C1106.65,-135.84 1100.05,-125.79 1094.05,-116.66"/>
<polygon fill="black" stroke="black" points="1096.95,-114.71 1088.54,-108.28 1091.1,-118.55 1096.95,-114.71"/>
</g>
<!-- mlun:0_start_0 node0 (5) -->
<g id="node16" class="node">
<title>mlun:0_start_0 node0 (5)</title>
<ellipse fill="none" stroke="red" stroke-dasharray="5,2" cx="1387.19" cy="-90" rx="126.98" ry="18"/>
<text text-anchor="middle" x="1387.19" y="-86.3" font-family="Times,serif" font-size="14.00">mlun:0_start_0 node0 (5)</text>
</g>
<!-- mlun&#45;clone_start_0 (9)&#45;&gt;mlun:0_start_0 node0 (5) -->
<g id="edge28" class="edge">
<title>mlun&#45;clone_start_0 (9)&#45;&gt;mlun:0_start_0 node0 (5)</title>
<path fill="none" stroke="black" stroke-dasharray="5,2" d="M1178.85,-146.24C1220.2,-135.28 1276.77,-120.28 1320.53,-108.67"/>
<polygon fill="black" stroke="black" points="1321.46,-112.05 1330.23,-106.1 1319.67,-105.28 1321.46,-112.05"/>
</g>
<!-- mlun:1_monitor_30000 node1 (8) -->
<g id="node13" class="node">
<title>mlun:1_monitor_30000 node1 (8)</title>
<ellipse fill="none" stroke="red" stroke-dasharray="5,2" cx="916.19" cy="-18" rx="164.37" ry="18"/>
<text text-anchor="middle" x="916.19" y="-14.3" font-family="Times,serif" font-size="14.00">mlun:1_monitor_30000 node1 (8)</text>
</g>
<!-- mlun:1_start_0 node1 (7)&#45;&gt;mlun&#45;clone_running_0 (10) -->
<g id="edge18" class="edge">
<title>mlun:1_start_0 node1 (7)&#45;&gt;mlun&#45;clone_running_0 (10)</title>
<path fill="none" stroke="black" stroke-dasharray="5,2" d="M1113.53,-72.59C1135.31,-62.75 1163.21,-50.15 1186.48,-39.64"/>
<polygon fill="black" stroke="black" points="1188.13,-42.74 1195.8,-35.43 1185.25,-36.36 1188.13,-42.74"/>
</g>
<!-- mlun:1_start_0 node1 (7)&#45;&gt;mlun:1_monitor_30000 node1 (8) -->
<g id="edge25" class="edge">
<title>mlun:1_start_0 node1 (7)&#45;&gt;mlun:1_monitor_30000 node1 (8)</title>
<path fill="none" stroke="black" stroke-dasharray="5,2" d="M1039.84,-72.76C1017.21,-62.92 988.11,-50.27 963.83,-39.72"/>
<polygon fill="black" stroke="black" points="965.01,-36.41 954.44,-35.63 962.22,-42.83 965.01,-36.41"/>
</g>
<!-- mlun:0_monitor_30000 node0 (6) -->
<g id="node15" class="node">
<title>mlun:0_monitor_30000 node0 (6)</title>
<ellipse fill="none" stroke="red" stroke-dasharray="5,2" cx="1548.19" cy="-18" rx="164.37" ry="18"/>
<text text-anchor="middle" x="1548.19" y="-14.3" font-family="Times,serif" font-size="14.00">mlun:0_monitor_30000 node0 (6)</text>
</g>
<!-- mlun:0_start_0 node0 (5)&#45;&gt;mlun&#45;clone_running_0 (10) -->
<g id="edge19" class="edge">
<title>mlun:0_start_0 node0 (5)&#45;&gt;mlun&#45;clone_running_0 (10)</title>
<path fill="none" stroke="black" stroke-dasharray="5,2" d="M1350.85,-72.59C1329.06,-62.75 1301.16,-50.15 1277.89,-39.64"/>
<polygon fill="black" stroke="black" points="1279.12,-36.36 1268.57,-35.43 1276.24,-42.74 1279.12,-36.36"/>
</g>
<!-- mlun:0_start_0 node0 (5)&#45;&gt;mlun:0_monitor_30000 node0 (6) -->
<g id="edge27" class="edge">
<title>mlun:0_start_0 node0 (5)&#45;&gt;mlun:0_monitor_30000 node0 (6)</title>
<path fill="none" stroke="black" stroke-dasharray="5,2" d="M1424.53,-72.76C1447.16,-62.92 1476.26,-50.27 1500.54,-39.72"/>
<polygon fill="black" stroke="black" points="1502.15,-42.83 1509.93,-35.63 1499.36,-36.41 1502.15,-42.83"/>
</g>
<!-- lun:1_monitor_0 node1 (4) -->
<g id="node17" class="node">
<title>lun:1_monitor_0 node1 (4)</title>
<ellipse fill="none" stroke="red" stroke-dasharray="5,2" cx="926.19" cy="-378" rx="131.88" ry="18"/>
<text text-anchor="middle" x="926.19" y="-374.3" font-family="Times,serif" font-size="14.00">lun:1_monitor_0 node1 (4)</text>
</g>
<!-- lun:1_monitor_0 node1 (4)&#45;&gt;lun&#45;clone_stopped_0 (20) -->
<g id="edge1" class="edge">
<title>lun:1_monitor_0 node1 (4)&#45;&gt;lun&#45;clone_stopped_0 (20)</title>
<path fill="none" stroke="black" stroke-dasharray="5,2" d="M863.26,-362.07C816.32,-350.93 752.13,-335.7 703.15,-324.08"/>
<polygon fill="black" stroke="black" points="703.79,-320.63 693.25,-321.73 702.17,-327.44 703.79,-320.63"/>
</g>
<!-- lun:1_monitor_0 node1 (4)&#45;&gt;lun&#45;clone_start_0 (17) -->
<g id="edge8" class="edge">
<title>lun:1_monitor_0 node1 (4)&#45;&gt;lun&#45;clone_start_0 (17)</title>
<path fill="none" stroke="black" stroke-dasharray="5,2" d="M879.34,-361.07C855.79,-351.99 827.4,-339.35 804.19,-324 784.78,-311.17 785.82,-300.48 766.19,-288 743.59,-273.63 716.47,-262.06 692.48,-253.43"/>
<polygon fill="black" stroke="black" points="693.36,-250.03 682.77,-250.04 691.05,-256.64 693.36,-250.03"/>
</g>
<!-- mlun:1_monitor_0 node1 (3) -->
<g id="node18" class="node">
<title>mlun:1_monitor_0 node1 (3)</title>
<ellipse fill="none" stroke="red" stroke-dasharray="5,2" cx="954.19" cy="-306" rx="141.07" ry="18"/>
<text text-anchor="middle" x="954.19" y="-302.3" font-family="Times,serif" font-size="14.00">mlun:1_monitor_0 node1 (3)</text>
</g>
<!-- mlun:1_monitor_0 node1 (3)&#45;&gt;mlun&#45;clone_stopped_0 (12) -->
<g id="edge15" class="edge">
<title>mlun:1_monitor_0 node1 (3)&#45;&gt;mlun&#45;clone_stopped_0 (12)</title>
<path fill="none" stroke="black" stroke-dasharray="5,2" d="M993.81,-288.59C1017.86,-278.63 1048.74,-265.84 1074.3,-255.25"/>
<polygon fill="black" stroke="black" points="1075.91,-258.37 1083.81,-251.31 1073.23,-251.9 1075.91,-258.37"/>
</g>
<!-- mlun:1_monitor_0 node1 (3)&#45;&gt;mlun&#45;clone_start_0 (9) -->
<g id="edge21" class="edge">
<title>mlun:1_monitor_0 node1 (3)&#45;&gt;mlun&#45;clone_start_0 (9)</title>
<path fill="none" stroke="black" stroke-dasharray="5,2" d="M954.53,-287.7C955.84,-267.94 960.89,-235.8 979.19,-216 995.32,-198.54 1017.71,-186.81 1040.03,-178.94"/>
<polygon fill="black" stroke="black" points="1041.17,-182.25 1049.57,-175.8 1038.98,-175.6 1041.17,-182.25"/>
</g>
<!-- lun:0_monitor_0 node0 (2) -->
<g id="node19" class="node">
<title>lun:0_monitor_0 node0 (2)</title>
<ellipse fill="none" stroke="red" stroke-dasharray="5,2" cx="410.19" cy="-378" rx="131.88" ry="18"/>
<text text-anchor="middle" x="410.19" y="-374.3" font-family="Times,serif" font-size="14.00">lun:0_monitor_0 node0 (2)</text>
</g>
<!-- lun:0_monitor_0 node0 (2)&#45;&gt;lun&#45;clone_stopped_0 (20) -->
<g id="edge2" class="edge">
<title>lun:0_monitor_0 node0 (2)&#45;&gt;lun&#45;clone_stopped_0 (20)</title>
<path fill="none" stroke="black" stroke-dasharray="5,2" d="M459.78,-361.29C493.05,-350.75 537.03,-336.82 572.11,-325.71"/>
<polygon fill="black" stroke="black" points="573.28,-329.01 581.75,-322.66 571.16,-322.34 573.28,-329.01"/>
</g>
<!-- lun:0_monitor_0 node0 (2)&#45;&gt;lun&#45;clone_start_0 (17) -->
<g id="edge9" class="edge">
<title>lun:0_monitor_0 node0 (2)&#45;&gt;lun&#45;clone_start_0 (17)</title>
<path fill="none" stroke="black" stroke-dasharray="5,2" d="M423.04,-359.78C438.5,-340.1 466.16,-308.03 496.19,-288 518.18,-273.32 544.86,-261.77 568.66,-253.24"/>
<polygon fill="black" stroke="black" points="570.02,-256.48 578.32,-249.89 567.73,-249.87 570.02,-256.48"/>
</g>
<!-- mlun:0_monitor_0 node0 (1) -->
<g id="node20" class="node">
<title>mlun:0_monitor_0 node0 (1)</title>
<ellipse fill="none" stroke="red" stroke-dasharray="5,2" cx="1292.19" cy="-306" rx="141.07" ry="18"/>
<text text-anchor="middle" x="1292.19" y="-302.3" font-family="Times,serif" font-size="14.00">mlun:0_monitor_0 node0 (1)</text>
</g>
<!-- mlun:0_monitor_0 node0 (1)&#45;&gt;mlun&#45;clone_stopped_0 (12) -->
<g id="edge16" class="edge">
<title>mlun:0_monitor_0 node0 (1)&#45;&gt;mlun&#45;clone_stopped_0 (12)</title>
<path fill="none" stroke="black" stroke-dasharray="5,2" d="M1252.56,-288.59C1228.51,-278.63 1197.63,-265.84 1172.07,-255.25"/>
<polygon fill="black" stroke="black" points="1173.14,-251.9 1162.56,-251.31 1170.46,-258.37 1173.14,-251.9"/>
</g>
<!-- mlun:0_monitor_0 node0 (1)&#45;&gt;mlun&#45;clone_start_0 (9) -->
<g id="edge22" class="edge">
<title>mlun:0_monitor_0 node0 (1)&#45;&gt;mlun&#45;clone_start_0 (9)</title>
<path fill="none" stroke="black" stroke-dasharray="5,2" d="M1291.84,-287.7C1290.53,-267.94 1285.49,-235.8 1267.19,-216 1251.05,-198.54 1228.66,-186.81 1206.34,-178.94"/>
<polygon fill="black" stroke="black" points="1207.39,-175.6 1196.8,-175.8 1205.2,-182.25 1207.39,-175.6"/>
</g>
</g>
</svg>
